<svg xmlns="http://www.w3.org/2000/svg" xmlns:xlink="http://www.w3.org/1999/xlink" width="400" zoomAndPan="magnify" viewBox="0 0 300 74.999997" height="100" preserveAspectRatio="xMidYMid meet" version="1.0"><defs><g/><clipPath id="383e5101ae"><path d="M 104.871094 1 L 187 1 L 187 26 L 104.871094 26 Z M 104.871094 1 " clip-rule="nonzero"/></clipPath><clipPath id="f2f131d46c"><path d="M 139 12 L 206.871094 12 L 206.871094 34.492188 L 139 34.492188 Z M 139 12 " clip-rule="nonzero"/></clipPath><clipPath id="44135c42f6"><path d="M 152 9 L 162 9 L 162 18 L 152 18 Z M 152 9 " clip-rule="nonzero"/></clipPath><clipPath id="b3ecc869f6"><path d="M 158.8125 8.226562 L 163.0625 11.355469 L 156.367188 20.449219 L 152.117188 17.324219 Z M 158.8125 8.226562 " clip-rule="nonzero"/></clipPath><clipPath id="c8e472194f"><path d="M 161.84375 10.484375 L 159.382812 9.136719 C 159.347656 9.117188 159.292969 9.121094 159.269531 9.152344 L 155.011719 13.425781 C 154.96875 13.472656 154.980469 13.550781 155.039062 13.585938 L 156.5625 14.351562 C 156.625 14.382812 156.632812 14.472656 156.582031 14.519531 L 152.71875 17.59375 C 152.671875 17.636719 152.667969 17.710938 152.722656 17.75 C 152.75 17.769531 152.789062 17.773438 152.820312 17.765625 L 160.992188 14.144531 C 161.070312 14.109375 161.074219 14.003906 161 13.964844 L 158.871094 12.964844 C 158.804688 12.929688 158.796875 12.839844 158.855469 12.792969 L 161.855469 10.652344 C 161.910156 10.609375 161.90625 10.523438 161.84375 10.484375 Z M 161.84375 10.484375 " clip-rule="nonzero"/></clipPath><clipPath id="b2be724223"><path d="M 81.59375 34.75 L 128.09375 34.75 L 128.09375 61.75 L 81.59375 61.75 Z M 81.59375 34.75 " clip-rule="nonzero"/></clipPath></defs><g clip-path="url(#383e5101ae)"><path fill="#000000" d="M 104.898438 25.339844 C 104.898438 25.339844 117.570312 13.082031 121.871094 12.257812 C 126.214844 11.476562 139.117188 17.652344 151.652344 20.082031 C 164.1875 22.507812 176.859375 8.78125 176.859375 8.78125 C 176.859375 8.78125 167.160156 6.082031 160.023438 6.082031 C 152.886719 6.082031 141.128906 14.039062 141.128906 14.039062 C 141.128906 14.039062 149.914062 4.84375 158.101562 2.421875 C 166.335938 -0.00390625 186.007812 7.957031 186.007812 7.957031 C 186.007812 7.957031 168.347656 24.5625 157.734375 24.976562 C 147.074219 25.386719 126.671875 17.105469 123.605469 17.105469 C 120.496094 17.105469 114.136719 25.066406 114.136719 25.066406 Z M 104.898438 25.339844 " fill-opacity="1" fill-rule="evenodd"/></g><g clip-path="url(#f2f131d46c)"><path fill="#f78a1d" d="M 181.113281 15.597656 C 181.113281 15.597656 168.398438 25.207031 159.429688 26.898438 C 150.460938 28.589844 139.710938 23.878906 139.710938 23.878906 C 139.710938 23.878906 145.429688 29 156.410156 29.871094 C 167.390625 30.742188 181.113281 19.488281 181.113281 19.488281 L 192.414062 19.851562 C 192.414062 19.851562 192.644531 24.335938 191.132812 27.445312 C 189.671875 30.558594 184.410156 34.765625 184.410156 34.765625 C 184.410156 34.765625 192.1875 32.160156 194.792969 28.589844 C 197.402344 25.023438 198.222656 16.191406 198.222656 16.191406 L 206.503906 12.484375 L 193.191406 12.347656 C 193.191406 12.347656 193.191406 15.230469 192.6875 15.640625 C 192.230469 16.054688 181.113281 15.597656 181.113281 15.597656 Z M 181.113281 15.597656 " fill-opacity="1" fill-rule="evenodd"/></g><g clip-path="url(#44135c42f6)"><g clip-path="url(#b3ecc869f6)"><g clip-path="url(#c8e472194f)"><path fill="#f78a1d" d="M 158.816406 8.257812 L 163.050781 11.375 L 156.378906 20.433594 L 152.148438 17.316406 Z M 158.816406 8.257812 " fill-opacity="1" fill-rule="nonzero"/></g></g></g><g fill="#000000" fill-opacity="1"><g transform="translate(56.545291, 60.22782)"><g><path d="M 22.375 -7.625 C 23.65625 -7.625 24.898438 -7.816406 26.109375 -8.203125 C 27.316406 -8.585938 28.207031 -8.960938 28.78125 -9.328125 L 29.625 -9.90625 L 33.21875 -2.734375 C 33.09375 -2.640625 32.925781 -2.519531 32.71875 -2.375 C 32.507812 -2.226562 32.023438 -1.953125 31.265625 -1.546875 C 30.503906 -1.140625 29.691406 -0.785156 28.828125 -0.484375 C 27.960938 -0.191406 26.828125 0.0703125 25.421875 0.3125 C 24.015625 0.550781 22.5625 0.671875 21.0625 0.671875 C 17.625 0.671875 14.363281 -0.171875 11.28125 -1.859375 C 8.207031 -3.546875 5.726562 -5.867188 3.84375 -8.828125 C 1.96875 -11.785156 1.03125 -14.984375 1.03125 -18.421875 C 1.03125 -21.023438 1.582031 -23.519531 2.6875 -25.90625 C 3.789062 -28.300781 5.257812 -30.347656 7.09375 -32.046875 C 8.9375 -33.753906 11.082031 -35.113281 13.53125 -36.125 C 15.988281 -37.144531 18.5 -37.65625 21.0625 -37.65625 C 23.457031 -37.65625 25.660156 -37.367188 27.671875 -36.796875 C 29.691406 -36.234375 31.125 -35.664062 31.96875 -35.09375 L 33.21875 -34.25 L 29.625 -27.078125 C 29.414062 -27.253906 29.101562 -27.46875 28.6875 -27.71875 C 28.269531 -27.976562 27.429688 -28.316406 26.171875 -28.734375 C 24.921875 -29.148438 23.65625 -29.359375 22.375 -29.359375 C 20.34375 -29.359375 18.519531 -29.03125 16.90625 -28.375 C 15.289062 -27.71875 14.007812 -26.847656 13.0625 -25.765625 C 12.125 -24.691406 11.40625 -23.535156 10.90625 -22.296875 C 10.414062 -21.054688 10.171875 -19.796875 10.171875 -18.515625 C 10.171875 -15.703125 11.222656 -13.179688 13.328125 -10.953125 C 15.441406 -8.734375 18.457031 -7.625 22.375 -7.625 Z M 22.375 -7.625 "/></g></g></g><g fill="#000000" fill-opacity="1"><g transform="translate(86.490696, 60.22782)"><g><path d="M 2.6875 0 L 2.6875 -38.546875 L 10.625 -38.546875 L 10.625 -20.578125 L 10.71875 -20.578125 C 12.78125 -22.640625 14.972656 -23.671875 17.296875 -23.671875 C 18.429688 -23.671875 19.5625 -23.519531 20.6875 -23.21875 C 21.8125 -22.914062 22.890625 -22.453125 23.921875 -21.828125 C 24.953125 -21.203125 25.785156 -20.3125 26.421875 -19.15625 C 27.066406 -18.007812 27.390625 -16.675781 27.390625 -15.15625 L 27.390625 0 L 19.453125 0 L 19.453125 -13 C 19.453125 -14.195312 19.070312 -15.242188 18.3125 -16.140625 C 17.550781 -17.035156 16.554688 -17.484375 15.328125 -17.484375 C 14.128906 -17.484375 13.046875 -17.019531 12.078125 -16.09375 C 11.109375 -15.164062 10.625 -14.132812 10.625 -13 L 10.625 0 Z M 2.6875 0 "/></g></g></g><g fill="#000000" fill-opacity="1"><g transform="translate(112.311853, 60.22782)"><g><path d="M 4.25 -2.84375 C 2.101562 -5.1875 1.03125 -8.0625 1.03125 -11.46875 C 1.03125 -14.882812 2.101562 -17.769531 4.25 -20.125 C 6.40625 -22.488281 9.144531 -23.671875 12.46875 -23.671875 C 15.507812 -23.671875 18.019531 -22.710938 20 -20.796875 L 20 -23 L 27.921875 -23 L 27.921875 0 L 20.078125 0 L 20.078125 -2.59375 L 20 -2.59375 C 18.019531 -0.414062 15.507812 0.671875 12.46875 0.671875 C 9.144531 0.671875 6.40625 -0.5 4.25 -2.84375 Z M 11 -15.375 C 9.96875 -14.363281 9.453125 -13.0625 9.453125 -11.46875 C 9.453125 -9.882812 9.945312 -8.59375 10.9375 -7.59375 C 11.925781 -6.59375 13.226562 -6.09375 14.84375 -6.09375 C 16.394531 -6.09375 17.671875 -6.597656 18.671875 -7.609375 C 19.671875 -8.628906 20.171875 -9.914062 20.171875 -11.46875 C 20.171875 -13.0625 19.65625 -14.363281 18.625 -15.375 C 17.59375 -16.394531 16.332031 -16.90625 14.84375 -16.90625 C 13.3125 -16.90625 12.03125 -16.394531 11 -15.375 Z M 11 -15.375 "/></g></g></g><g fill="#000000" fill-opacity="1"><g transform="translate(139.119235, 60.22782)"><g><path d="M 2.6875 0 L 2.6875 -23 L 10.625 -23 L 10.625 -19.671875 L 10.71875 -19.671875 C 10.769531 -19.796875 10.863281 -19.945312 11 -20.125 C 11.132812 -20.300781 11.425781 -20.613281 11.875 -21.0625 C 12.320312 -21.507812 12.800781 -21.910156 13.3125 -22.265625 C 13.820312 -22.628906 14.476562 -22.953125 15.28125 -23.234375 C 16.09375 -23.523438 16.914062 -23.671875 17.75 -23.671875 C 18.613281 -23.671875 19.460938 -23.550781 20.296875 -23.3125 C 21.140625 -23.070312 21.753906 -22.832031 22.140625 -22.59375 L 22.765625 -22.234375 L 19.453125 -15.515625 C 18.460938 -16.347656 17.085938 -16.765625 15.328125 -16.765625 C 14.367188 -16.765625 13.546875 -16.554688 12.859375 -16.140625 C 12.171875 -15.722656 11.6875 -15.210938 11.40625 -14.609375 C 11.125 -14.015625 10.921875 -13.507812 10.796875 -13.09375 C 10.679688 -12.675781 10.625 -12.347656 10.625 -12.109375 L 10.625 0 Z M 2.6875 0 "/></g></g></g><g fill="#000000" fill-opacity="1"><g transform="translate(157.633284, 60.22782)"><g><path d="M 1.65625 5.640625 L 8.15625 2.46875 C 9.351562 4.4375 11.429688 5.421875 14.390625 5.421875 C 15.765625 5.421875 17.039062 4.976562 18.21875 4.09375 C 19.40625 3.21875 20 1.867188 20 0.046875 L 20 -1.65625 C 18.59375 -0.101562 16.082031 0.671875 12.46875 0.671875 C 9.144531 0.671875 6.40625 -0.5 4.25 -2.84375 C 2.101562 -5.1875 1.03125 -8.0625 1.03125 -11.46875 C 1.03125 -14.882812 2.101562 -17.769531 4.25 -20.125 C 6.40625 -22.488281 9.144531 -23.671875 12.46875 -23.671875 C 15.425781 -23.671875 17.890625 -22.757812 19.859375 -20.9375 L 20 -20.9375 L 20 -23 L 27.921875 -23 L 27.921875 0.625 C 27.921875 4.363281 26.679688 7.25 24.203125 9.28125 C 21.722656 11.3125 18.453125 12.328125 14.390625 12.328125 C 7.816406 12.328125 3.570312 10.097656 1.65625 5.640625 Z M 11 -15.375 C 9.96875 -14.363281 9.453125 -13.0625 9.453125 -11.46875 C 9.453125 -9.882812 9.945312 -8.59375 10.9375 -7.59375 C 11.925781 -6.59375 13.226562 -6.09375 14.84375 -6.09375 C 16.394531 -6.09375 17.671875 -6.597656 18.671875 -7.609375 C 19.671875 -8.628906 20.171875 -9.914062 20.171875 -11.46875 C 20.171875 -13.0625 19.65625 -14.363281 18.625 -15.375 C 17.59375 -16.394531 16.332031 -16.90625 14.84375 -16.90625 C 13.3125 -16.90625 12.03125 -16.394531 11 -15.375 Z M 11 -15.375 "/></g></g></g><g fill="#000000" fill-opacity="1"><g transform="translate(184.440672, 60.22782)"><g><path d="M 25.953125 -10.40625 L 9.28125 -10.40625 C 9.28125 -8.789062 9.800781 -7.59375 10.84375 -6.8125 C 11.894531 -6.03125 13.03125 -5.640625 14.25 -5.640625 C 15.539062 -5.640625 16.554688 -5.8125 17.296875 -6.15625 C 18.046875 -6.5 18.898438 -7.179688 19.859375 -8.203125 L 25.59375 -5.328125 C 23.207031 -1.328125 19.234375 0.671875 13.671875 0.671875 C 10.203125 0.671875 7.226562 -0.515625 4.75 -2.890625 C 2.269531 -5.265625 1.03125 -8.125 1.03125 -11.46875 C 1.03125 -14.820312 2.269531 -17.691406 4.75 -20.078125 C 7.226562 -22.472656 10.203125 -23.671875 13.671875 -23.671875 C 17.316406 -23.671875 20.28125 -22.613281 22.5625 -20.5 C 24.851562 -18.394531 26 -15.382812 26 -11.46875 C 26 -10.9375 25.984375 -10.582031 25.953125 -10.40625 Z M 9.5 -14.796875 L 18.25 -14.796875 C 18.0625 -15.992188 17.585938 -16.910156 16.828125 -17.546875 C 16.066406 -18.191406 15.085938 -18.515625 13.890625 -18.515625 C 12.578125 -18.515625 11.53125 -18.171875 10.75 -17.484375 C 9.976562 -16.796875 9.5625 -15.898438 9.5 -14.796875 Z M 9.5 -14.796875 "/></g></g></g><g fill="#000000" fill-opacity="1"><g transform="translate(207.661753, 60.22782)"><g><path d="M 37.296875 0 L 26.40625 0 L 17.65625 -12.59375 L 8.921875 0 L -1.53125 0 L 12.46875 -19.90625 L 0.8125 -36.984375 L 10.84375 -36.984375 L 17.65625 -26.890625 L 24.46875 -36.984375 L 34.96875 -36.984375 L 22.859375 -19.90625 Z M 37.296875 0 "/></g></g></g><g clip-path="url(#b2be724223)"><path fill="#ffffff" d="M 123.785156 56.304688 L 121.847656 55.390625 L 128.097656 49.738281 L 125.085938 55.3125 L 127.101562 56.261719 L 120.464844 61.625 Z M 108.839844 49.359375 L 104.765625 48.976562 L 112.324219 34.753906 L 110.535156 46.730469 L 114.773438 47.125 L 106.324219 61.085938 Z M 89.492188 54.207031 L 87.652344 56.632812 L 81.632812 46.261719 L 88.5 52.105469 L 90.417969 49.578125 L 95.914062 60.410156 L 89.492188 54.207031 " fill-opacity="1" fill-rule="nonzero"/></g></svg>